<svg xmlns="http://www.w3.org/2000/svg" xmlns:xlink="http://www.w3.org/1999/xlink" width="1920" height="1080" viewBox="0 0 1920 1080">
  <defs>
    <clipPath id="clip-path">
      <rect id="Rectangle_1493" data-name="Rectangle 1493" width="532" height="359" transform="translate(-0.433 0)" fill="#fff" stroke="#707070" stroke-width="1"/>
    </clipPath>
    <clipPath id="clip-Web_1920_1">
      <rect width="1920" height="1080"/>
    </clipPath>
  </defs>
  <g id="Web_1920_1" data-name="Web 1920 – 1" clip-path="url(#clip-Web_1920_1)">
    <rect width="1920" height="1080" fill="#fff"/>
    <g id="Groupe_de_masques_4" data-name="Groupe de masques 4" transform="translate(694.433 359)" clip-path="url(#clip-path)">
      <g id="logo6" transform="translate(79.943 8.679)">
        <ellipse id="Ellipse_209" data-name="Ellipse 209" cx="171.066" cy="169.925" rx="171.066" ry="169.925" transform="translate(14.757 0)" fill="#bf120b" stroke="#bf120b" stroke-miterlimit="10" stroke-width="2.634"/>
        <ellipse id="Ellipse_210" data-name="Ellipse 210" cx="31.021" cy="30.814" rx="31.021" ry="30.814" transform="translate(250.124 45.323)" fill="#fff"/>
        <ellipse id="Ellipse_211" data-name="Ellipse 211" cx="31.021" cy="30.814" rx="31.021" ry="30.814" transform="translate(280.693 203.282)" fill="#fff"/>
        <ellipse id="Ellipse_212" data-name="Ellipse 212" cx="31.021" cy="30.814" rx="31.021" ry="30.814" transform="translate(32.978 201.487)" fill="#fff"/>
        <ellipse id="Ellipse_213" data-name="Ellipse 213" cx="31.021" cy="30.814" rx="31.021" ry="30.814" transform="translate(155.405 5.834)" fill="#fff"/>
        <ellipse id="Ellipse_214" data-name="Ellipse 214" cx="31.021" cy="30.814" rx="31.021" ry="30.814" transform="translate(57.976 45.323)" fill="#fff"/>
        <rect id="Rectangle_1492" data-name="Rectangle 1492" width="371.797" height="86.159" transform="translate(0 112.037)" fill="#fff"/>
        <g id="Groupe_148" data-name="Groupe 148" transform="translate(0.151 114.281)">
          <path id="Tracé_271" data-name="Tracé 271" d="M21.41,78.169H2.887a2.958,2.958,0,0,1-2.108-.6,1.837,1.837,0,0,1-.753-1.5,2.114,2.114,0,0,1,1.506-2.094,5.562,5.562,0,0,0,1.506-.6,1.122,1.122,0,0,0,.452-.449,3.6,3.6,0,0,0,.452-2.094V31.2c0-.9,0-1.645-.452-1.945a.479.479,0,0,0-.452-.449,12.71,12.71,0,0,0-1.506-.6A1.958,1.958,0,0,1,.026,26.114a1.837,1.837,0,0,1,.753-1.5,3.916,3.916,0,0,1,2.108-.6H22.464a2.958,2.958,0,0,1,2.108.6,1.837,1.837,0,0,1,.753,1.5,1.958,1.958,0,0,1-1.506,2.094,5.561,5.561,0,0,0-1.506.6,1.122,1.122,0,0,0-.452.449A3.376,3.376,0,0,0,21.41,31.2V70.839c0,1.5.452,2.393,1.2,2.543l1.2.449a1.958,1.958,0,0,1,1.506,2.094c0,1.346-.9,2.094-2.861,2.094H21.41ZM36.92,39.876l11.9,31.263a7.977,7.977,0,0,0,.9,1.945,3.276,3.276,0,0,0,1.355,1.047,4.852,4.852,0,0,1,1.054.6,2.277,2.277,0,0,1,.6,1.5c0,1.346-1.054,2.094-3.012,2.094H29.993a2.958,2.958,0,0,1-2.108-.6,2.137,2.137,0,0,1-.753-1.645,2.016,2.016,0,0,1,1.506-1.945,5.689,5.689,0,0,0,1.2-.748,1.139,1.139,0,0,0,.3-.748,2.556,2.556,0,0,0-.3-1.2L24.873,56.33a11.779,11.779,0,0,1-.753-3.59,5.467,5.467,0,0,1,1.2-2.992l9.336-13.313a6.43,6.43,0,0,0,1.355-3.889,3.721,3.721,0,0,0-.6-2.094,4.262,4.262,0,0,0-1.506-1.346l-1.355-.6A1.881,1.881,0,0,1,31.2,26.713a2.469,2.469,0,0,1,.753-1.795,2.629,2.629,0,0,1,1.807-.449h14a2.958,2.958,0,0,1,2.108.6,2.469,2.469,0,0,1,.753,1.795,2.509,2.509,0,0,1-1.807,2.393L46.708,30A12.886,12.886,0,0,0,43.4,32.1a28.513,28.513,0,0,0-3.765,4.188l-2.711,3.74Z" transform="translate(-0.026 -9.361)" fill="#bf120b"/>
          <path id="Tracé_272" data-name="Tracé 272" d="M31.7,24.17V70.69a3.09,3.09,0,0,0,.6,2.244.807.807,0,0,0,.6.449,13.783,13.783,0,0,0,1.807.449,2.124,2.124,0,0,1,1.807,2.244,1.745,1.745,0,0,1-1.054,1.645,5.178,5.178,0,0,1-2.56.449H13.028a2.958,2.958,0,0,1-2.108-.6,1.837,1.837,0,0,1-.753-1.5,2.114,2.114,0,0,1,1.506-2.094,5.561,5.561,0,0,0,1.506-.6,1.121,1.121,0,0,0,.452-.449,3.6,3.6,0,0,0,.452-2.094V31.2c0-.9,0-1.645-.452-1.945a.479.479,0,0,0-.452-.449,12.71,12.71,0,0,0-1.506-.6,1.958,1.958,0,0,1-1.506-2.094,1.837,1.837,0,0,1,.753-1.5,3.916,3.916,0,0,1,2.108-.6H31.55ZM43.747,51.693a48.05,48.05,0,0,1,5.572,1.2,12.618,12.618,0,0,1,3.463,1.795,8.257,8.257,0,0,1,2.56,2.992,7.923,7.923,0,0,1,.9,3.59v8.227c0,.9.3,1.2.753,1.2a.91.91,0,0,0,.6-.15,4.1,4.1,0,0,0,.6-.748,2.624,2.624,0,0,1,1.958-1.346,2.086,2.086,0,0,1,1.355.748,1.914,1.914,0,0,1,.6,1.5,6.465,6.465,0,0,1-1.2,2.992,14.269,14.269,0,0,1-2.861,3.141,11.394,11.394,0,0,1-3.464,1.945,12.841,12.841,0,0,1-4.367.6,11.071,11.071,0,0,1-8.132-2.992C40.133,74.429,39.23,71.587,39.23,68V58.723a4.285,4.285,0,0,0-1.054-2.692,4.708,4.708,0,0,0-3.313-1.645V50.2a6.367,6.367,0,0,0,3.012-1.047A2.842,2.842,0,0,0,38.928,47.5a11.072,11.072,0,0,0,.3-2.692V34.341a6.544,6.544,0,0,0-.9-3.74,6.777,6.777,0,0,0-3.463-1.945V24.319h1.054a53.8,53.8,0,0,1,7.379.3,17.282,17.282,0,0,1,8.132,2.992c3.463,2.393,5.12,5.983,5.12,10.471a12.733,12.733,0,0,1-3.463,9.125A9.551,9.551,0,0,1,49.62,49.6,48.193,48.193,0,0,1,43.747,51.693Z" transform="translate(47.809 -9.361)" fill="#bf120b"/>
          <path id="Tracé_273" data-name="Tracé 273" d="M41.144,24.046l7.68,22.288,3.463-11.967V47.531L43.252,78.2H41.144L25.935,32.573a7.548,7.548,0,0,0-1.656-3.141,3.407,3.407,0,0,0-1.807-.748c-1.656-.3-2.56-1.2-2.56-2.393a2.137,2.137,0,0,1,.753-1.645,2.958,2.958,0,0,1,2.108-.6H41.144ZM25.935,42.3l4.216,11.967V68.772a6.174,6.174,0,0,0,.6,1.795,5.446,5.446,0,0,0,2.259,2.543l1.506.9A2.487,2.487,0,0,1,36.024,76.1c0,1.346-.9,1.945-3.012,1.945H23.224c-1.958,0-3.012-.6-3.012-1.945,0-.449,0-.748.3-.9a10.273,10.273,0,0,1,1.054-.748c2.861-1.645,4.367-4.338,4.367-8.227ZM55.6,24.046H74.122c1.958,0,3.012.748,3.012,2.094a1.958,1.958,0,0,1-1.506,2.094,5.56,5.56,0,0,0-1.506.6,1.121,1.121,0,0,0-.452.449,3.376,3.376,0,0,0-.452,1.945V70.866c0,.9,0,1.645.452,2.094q.226.449.452.449a12.713,12.713,0,0,0,1.506.6A1.958,1.958,0,0,1,77.134,76.1c0,1.346-1.054,2.094-3.012,2.094H54.245a4.048,4.048,0,0,1-2.56-.6,1.716,1.716,0,0,1-.9-1.645,2.124,2.124,0,0,1,1.807-2.244,13.614,13.614,0,0,1,1.807-.449c.151,0,.3-.15.6-.449a3.09,3.09,0,0,0,.6-2.244V24.046Z" transform="translate(93.781 -9.238)" fill="#bf120b"/>
          <path id="Tracé_274" data-name="Tracé 274" d="M57.58,23.862v4.787a4.929,4.929,0,0,0-3.463,2.094,8.839,8.839,0,0,0-1.2,4.936v34.4a4.49,4.49,0,0,0,.452,1.945l.9,1.795a4.868,4.868,0,0,0,1.355,1.2,3.435,3.435,0,0,0,1.958.449v4.787a22.076,22.076,0,0,1-13.252-4.039A23.375,23.375,0,0,1,36.8,66.792c-1.807-3.889-2.56-8.676-2.56-14.061A38.11,38.11,0,0,1,35.9,41.513a28.267,28.267,0,0,1,4.668-8.975A24.658,24.658,0,0,1,48.093,26.4a18.545,18.545,0,0,1,8.433-2.393h.9Zm3.162,4.787V23.862c1.2.15,2.259.449,3.162.6.753.3,2.259.748,4.367,1.5a12.793,12.793,0,0,0,2.711.748,1.629,1.629,0,0,0,1.656-1.047l.452-.9a3.161,3.161,0,0,1,1.807-.9,2.065,2.065,0,0,1,1.656.6,3.194,3.194,0,0,1,.6,1.795V42.709a3.084,3.084,0,0,1-.753,2.244,2.425,2.425,0,0,1-1.656.748,1.752,1.752,0,0,1-1.506-.6,4.7,4.7,0,0,1-.9-1.945,31.227,31.227,0,0,0-1.656-4.936,24,24,0,0,0-3.915-6.133A13.5,13.5,0,0,0,63.9,29.7,7.9,7.9,0,0,0,60.742,28.649ZM60.893,80.1V75.318a13.843,13.843,0,0,0,6.475-2.393,10.507,10.507,0,0,0,3.162-3.141A15.655,15.655,0,0,0,72.639,65.6a4.859,4.859,0,0,1,.9-1.795,1.914,1.914,0,0,1,1.355-.6,1.858,1.858,0,0,1,1.506.748,2.374,2.374,0,0,1,.6,1.795,9.464,9.464,0,0,1-1.355,4.338,20.742,20.742,0,0,1-3.463,4.637,17.735,17.735,0,0,1-5.27,3.889,13.849,13.849,0,0,1-6.174,1.346Z" transform="translate(161.372 -10.1)" fill="#bf120b"/>
          <path id="Tracé_275" data-name="Tracé 275" d="M64.182,78.169H45.66a2.958,2.958,0,0,1-2.108-.6,1.837,1.837,0,0,1-.753-1.5A2.114,2.114,0,0,1,44.3,73.981a5.562,5.562,0,0,0,1.506-.6,1.122,1.122,0,0,0,.452-.449,3.6,3.6,0,0,0,.452-2.094V31.2c0-.9,0-1.645-.452-1.945a.479.479,0,0,0-.452-.449,12.711,12.711,0,0,0-1.506-.6A1.958,1.958,0,0,1,42.8,26.114a1.837,1.837,0,0,1,.753-1.5,3.916,3.916,0,0,1,2.108-.6H65.236a2.958,2.958,0,0,1,2.108.6,1.837,1.837,0,0,1,.753,1.5,1.958,1.958,0,0,1-1.506,2.094,5.561,5.561,0,0,0-1.506.6,1.121,1.121,0,0,0-.452.449,3.376,3.376,0,0,0-.452,1.945V70.839a3.94,3.94,0,0,0,.452,2.094q.226.449.452.449a12.71,12.71,0,0,0,1.506.6A1.958,1.958,0,0,1,68.1,76.075a1.837,1.837,0,0,1-.753,1.5,3.916,3.916,0,0,1-2.108.6H64.182Z" transform="translate(201.753 -9.361)" fill="#bf120b"/>
          <path id="Tracé_276" data-name="Tracé 276" d="M54.078,37.958l4.216,7.03V66.229a9.933,9.933,0,0,0,.9,4.487,9.005,9.005,0,0,0,2.861,2.992l1.2.6s1.054,1.047,1.054,1.795a2.072,2.072,0,0,1-.753,1.5,4.8,4.8,0,0,1-2.56.449H51.97c-2.409,0-3.614-.748-3.614-2.094a1.6,1.6,0,0,1,.3-1.2,11.9,11.9,0,0,1,1.656-1.2c2.56-1.346,3.765-3.889,3.765-7.629V37.958ZM70.492,24.046,91.424,60.694V78.2H80.732L54.078,31.825c-.6-1.047-1.054-1.645-1.355-2.094a2.71,2.71,0,0,0-1.355-.9l-1.506-.6s-.753-.3-.9-.748a1.6,1.6,0,0,1-.3-1.2,1.6,1.6,0,0,1,.3-1.2,2,2,0,0,1,.9-.748,14.581,14.581,0,0,1,3.614-.3H70.492ZM91.424,54.262l-4.216-7.03V36.312a11.4,11.4,0,0,0-.9-5.086,6.937,6.937,0,0,0-3.463-2.992,4.154,4.154,0,0,1-1.2-.9,1.6,1.6,0,0,1-.3-1.2,1.57,1.57,0,0,1,.6-1.5A4.256,4.256,0,0,1,84.2,24.2h9.788c1.355,0,2.259.15,2.56.6a1.914,1.914,0,0,1,.6,1.5c0,.6,0,1.047-.3,1.2s-.9.6-1.807,1.2a7.465,7.465,0,0,0-3.162,3.291,11.243,11.243,0,0,0-.753,4.338v18.1Z" transform="translate(227.969 -9.238)" fill="#bf120b"/>
          <path id="Tracé_277" data-name="Tracé 277" d="M79.195,36.248V90.4H60.673a2.957,2.957,0,0,1-2.108-.6,1.837,1.837,0,0,1-.753-1.5,2.114,2.114,0,0,1,1.506-2.094,5.561,5.561,0,0,0,1.506-.6,1.121,1.121,0,0,0,.452-.449,3.6,3.6,0,0,0,.452-2.094V43.428c0-.9,0-1.645-.452-1.945a.479.479,0,0,0-.452-.449,12.707,12.707,0,0,0-1.506-.6,1.958,1.958,0,0,1-1.506-2.094,1.837,1.837,0,0,1,.753-1.5,3.916,3.916,0,0,1,2.108-.6H79.195ZM89.736,23.384,78.894,31.91l-.753.6a4.426,4.426,0,0,1-1.2.6H74.075s-1.054-.15-1.054-.6v-.449l5.873-9.125a6.549,6.549,0,0,1,1.054-1.2,3.258,3.258,0,0,1,1.506-.3h7.83a1.494,1.494,0,0,1,.9.3c.3.15.3.449.452.6,0,.3-.3.748-1.054,1.346ZM82.508,65.117V60.48a8.566,8.566,0,0,0,3.313-2.393,10.488,10.488,0,0,0,1.656-3.44,4.722,4.722,0,0,1,.753-2.094,1.752,1.752,0,0,1,1.506-.6A1.828,1.828,0,0,1,91.543,53a6.292,6.292,0,0,1,.3,2.393V70.5c0,1.2,0,2.094-.452,2.543a1.665,1.665,0,0,1-1.506.748,1.472,1.472,0,0,1-1.355-.6,4.027,4.027,0,0,1-.753-1.795,9.086,9.086,0,0,0-1.958-4.188,7.007,7.007,0,0,0-3.162-1.945Zm.151-28.869H98.47V50.308a3.173,3.173,0,0,1-.452,1.795,2.014,2.014,0,0,1-1.506.6c-.6,0-1.054,0-1.2-.3a4.523,4.523,0,0,1-.753-1.5,14.885,14.885,0,0,0-4.367-7.03,13.084,13.084,0,0,0-7.529-2.842V36.248Zm0,54V85.909a21.53,21.53,0,0,0,4.216-1.047,10.823,10.823,0,0,0,3.313-2.244A24.352,24.352,0,0,0,92.9,79.626a22.286,22.286,0,0,0,1.958-4.188,6.563,6.563,0,0,1,.9-1.795,1.848,1.848,0,0,1,1.355-.449,1.591,1.591,0,0,1,1.506.6,4.181,4.181,0,0,1,.452,2.244V89.948H82.809Z" transform="translate(272.575 -21.439)" fill="#bf120b"/>
        </g>
        <path id="Tracé_278" data-name="Tracé 278" d="M48.5,144.585c-8.132-13.462-28.31-6.731-34.936-16.753-8.885-13.462,11.6-49.96,29.816-49.811,12.348,0,16.715,17.2,26.5,15.856C85.7,91.633,84.493,44.813,102.111,40.625c6.927-1.645,13.553,4.338,24.7,14.509C150.3,76.226,158.28,98.813,163.4,97.317c4.969-1.645-.9-23.634,5.12-25.878,7.529-2.842,28.913,27.822,33.581,34.4,7.981,11.368,13.1,20.792,18.974,19.894,3.313-.449,5.722-4.039,9.487-9.723,6.325-9.424,5.421-13.612,8.132-14.509,6.023-1.795,12.348,17.8,33.28,40.088,9.336,9.872,14.757,13.163,13.553,16.9-2.108,6.582-23.04,5.385-41.712,4.338-12.8-.748-74.088-3.889-103.754-4.039-45.778-.15-80.413,14.958-88.243,1.346-2.861-4.936.452-8.676-3.463-15.257Z" transform="translate(53.896 181.355)" fill="#bf120b"/>
        <path id="Tracé_279" data-name="Tracé 279" d="M272.564,113.033l-6.325,5.684a10.559,10.559,0,0,1-14.908-.748L216.7,79.826a10.725,10.725,0,0,0-15.812,0l-1.656,1.795a10.745,10.745,0,0,1-16.414-.6L153,42.281a10.605,10.605,0,0,0-16.564-.3L104.961,80.275a10.736,10.736,0,0,1-16.414,0h0a10.6,10.6,0,0,0-16.564.15L7.683,162.4a10.455,10.455,0,0,0,8.282,16.9H320.751a10.57,10.57,0,0,0,8.132-17.352l-40.959-48.165a10.8,10.8,0,0,0-15.209-1.047Zm-161.88,45.922a10.7,10.7,0,0,1-3.313-1.945L75.3,129.188l-2.861-11.069,22.437,16.005L72.435,108.546l9.186-2.692V92.092L119.568,143.4l-20.931-17.95,36.592,42.631L110.684,159.1Zm80.262-5.385a10.7,10.7,0,0,1-3.313-1.945L135.078,105.7V91.942l37.5,30.964-37.5-42.631,9.939-6.731V51.256l56.169,66.265,4.367,14.509L172.876,105.7l56.018,62.226-38.1-14.36Zm54.06,2.244-25.9-31.861a10.807,10.807,0,0,1-1.807-3.44l-9.186-28.57,42.315,48.165a7.274,7.274,0,0,1,1.656,2.693l10.993,25.13-15.51-9.723a9.2,9.2,0,0,1-2.56-2.244Zm40.357-8.526a10.162,10.162,0,0,1-5.572-8.227l-1.958-17.651,11.746,17.352,7.981,3.889,20.63,25.279-21.835-14.809s-.753-.449-1.054-.6l-9.939-5.086Z" transform="translate(25.597 171.024)" fill="#fff"/>
      </g>
    </g>
  </g>
</svg>
